<svg width="24" height="24" viewBox="0 0 24 24" fill="none" xmlns="http://www.w3.org/2000/svg">
<path fill-rule="evenodd" clip-rule="evenodd" d="M18.7348 6.54544C18.8189 6.46147 18.8856 6.36178 18.9311 6.25204C18.9767 6.1423 19.0002 6.02466 19.0002 5.90585C19.0003 5.78704 18.977 5.66938 18.9316 5.55958C18.8862 5.44978 18.8196 5.35001 18.7356 5.26594C18.6517 5.18188 18.552 5.11517 18.4422 5.06964C18.3325 5.0241 18.2149 5.00063 18.096 5.00056C17.9772 5.00048 17.8596 5.02381 17.7498 5.06921C17.64 5.11461 17.5402 5.18119 17.4561 5.26515L12 10.7213L6.54544 5.26515C6.37566 5.09538 6.14539 5 5.9053 5C5.6652 5 5.43493 5.09538 5.26515 5.26515C5.09538 5.43493 5 5.6652 5 5.9053C5 6.14539 5.09538 6.37566 5.26515 6.54544L10.7213 12L5.26515 17.4546C5.18109 17.5386 5.11441 17.6384 5.06891 17.7483C5.02342 17.8581 5 17.9758 5 18.0947C5 18.2136 5.02342 18.3313 5.06891 18.4411C5.11441 18.551 5.18109 18.6508 5.26515 18.7348C5.43493 18.9046 5.6652 19 5.9053 19C6.02418 19 6.1419 18.9766 6.25174 18.9311C6.36157 18.8856 6.46137 18.8189 6.54544 18.7348L12 13.2787L17.4561 18.7348C17.6259 18.9044 17.8561 18.9996 18.096 18.9994C18.336 18.9993 18.5661 18.9038 18.7356 18.7341C18.9052 18.5643 19.0004 18.3341 19.0002 18.0941C19.0001 17.8542 18.9046 17.6241 18.7348 17.4546L13.2787 12L18.7348 6.54544Z" fill="#999999"/>
</svg>
